# xmcd CD database file
#
# Track frame offsets:
#	150
#	16288
#	36715
#	54463
#	81748
#	100566
#	118774
#	135241
#	157390
#	186597
#	203265
#	229632
#	246678
#	266567
#	294855
#	318584
#
# Disc length: 4501 seconds
#
# Revision: 0
# Processed by: cddbd v1.5.1PL2 Copyright (c) Steve Scherf et al.
# Submitted via: Feurio! 1.68 - http://www.feurio.com
#
DISCID=eb119310
DTITLE=Free - Live  -  Heartbreaker
DYEAR=1900
DGENRE=
TTITLE0=Wishing Well
TTITLE1=Come Together In The Morning
TTITLE2=Travellin In Style
TTITLE3=Heartbreaker
TTITLE4=Muddy Waters
TTITLE5=Common Mortal Man
TTITLE6=Easy On My Soul
TTITLE7=Seven Angels
TTITLE8=All Right Now
TTITLE9=I'm A Mover
TTITLE10=Be My Friend
TTITLE11=Fire And Water
TTITLE12=Ride On Pony
TTITLE13=Mr. Big
TTITLE14=The Hunter
TTITLE15=Get Where I Belong
EXTD=
EXTT0=
EXTT1=
EXTT2=
EXTT3=
EXTT4=
EXTT5=
EXTT6=
EXTT7=
EXTT8=
EXTT9=
EXTT10=
EXTT11=
EXTT12=
EXTT13=
EXTT14=
EXTT15=
PLAYORDER=
